<svg width="55" height="52" viewBox="0 0 55 52" fill="none" xmlns="http://www.w3.org/2000/svg">
<path d="M18.0155 0.935547H37.4777C42.1248 0.936031 46.5814 2.78168 49.8673 6.06658C53.1533 9.35148 54.9996 13.8066 55.0001 18.4522V33.5494C55.0001 35.8496 54.5468 38.1273 53.6662 40.2524C52.7856 42.3775 51.4949 44.3084 49.8678 45.9348C48.2406 47.5612 46.309 48.8513 44.1831 49.7314C42.0572 50.6115 39.7787 51.0644 37.4777 51.0641H18.2164C15.9155 51.0644 13.637 50.6115 11.5111 49.7314C9.38517 48.8513 7.4535 47.5612 5.82638 45.9348C4.19925 44.3084 2.90854 42.3775 2.02794 40.2524C1.14733 38.1273 0.694092 35.8496 0.694092 33.5494V18.4522C0.694092 8.7763 8.33649 0.935547 18.0155 0.935547Z" fill="#21201F"/>
<path d="M22.7778 29.2782V28.4273H17.6523V24.6402H27.6459V29.1449C27.6459 36.2352 24.2587 40.3546 17.8532 40.3546C11.2468 40.3546 7.4104 35.1506 7.4104 25.975C7.4104 17.0277 11.5974 11.5498 19.2793 11.5498C22.1807 11.5498 24.6842 12.3185 26.0518 13.3192V17.2176C24.0868 16.0003 21.8245 15.3477 19.513 15.3314C14.4751 15.3314 12.3387 18.7515 12.3387 25.975C12.3387 32.9813 14.1081 36.5657 17.9445 36.5657C21.6092 36.584 22.7778 33.7482 22.7778 29.2782Z" fill="white"/>
<path d="M48.3708 29.8114C48.3708 36.6187 44.7005 40.3711 39.4235 40.3711C34.1464 40.3711 30.4762 36.6187 30.4762 29.8625C30.4762 23.0553 34.1464 19.3029 39.4235 19.3029C44.7005 19.3029 48.3708 23.0389 48.3708 29.8114ZM43.4151 29.8114C43.4151 25.1406 42.0803 23.09 39.4289 23.09C36.7776 23.09 35.441 25.1406 35.441 29.8625C35.441 34.5334 36.7758 36.5858 39.4289 36.5858C42.0821 36.5858 43.4151 34.517 43.4151 29.8114Z" fill="white"/>
</svg>
